<svg width="1103" height="554" viewBox="0 0 1103 554" fill="none" xmlns="http://www.w3.org/2000/svg">
<path d="M1083.42 56.9128H1059V320.927H1083.42V56.9128Z" fill="#E9E9E9"/>
<path d="M1003 349H979V509H1003V349Z" fill="#E9E9E9"/>
<path d="M1083.33 487.721H979.326V508.721H1083.33V487.721Z" fill="#E9E9E9"/>
<path d="M577.279 381H272V402.37H577.279V381Z" fill="#E9E9E9"/>
<path d="M299 45H275V402H299V45Z" fill="#E9E9E9"/>
<path d="M799.616 176.27V200.692H830.144V176.27H799.616Z" fill="#E9E9E9"/>
<path d="M814.88 57.2112H790.457V322.804H814.88V57.2112Z" fill="#E9E9E9"/>
<path d="M583.173 102.698V134.752H724.212V163.448H583.479V243.431H621.944V195.197H762.677V102.698H583.173ZM583.479 225.725V258.695H766.951V225.725H583.479Z" fill="#28D4AB"/>
<path d="M160 103C110.576 103 70 138.731 70 187.339C70 236.269 110.576 272 160 272C209.729 272 250 236.269 250 187.339C250 138.731 209.729 103 160 103ZM160 139.375C188.678 139.375 211.254 158.046 211.254 187.339C211.254 216.954 188.678 235.947 160 235.947C131.322 235.947 108.746 216.954 108.746 187.339C108.746 158.046 131.322 139.375 160 139.375Z" fill="#28D4AB"/>
<path d="M945 103C895.576 103 855 138.731 855 187.339C855 236.269 895.576 272 945 272C994.729 272 1035 236.269 1035 187.339C1035 138.731 994.729 103 945 103ZM945 139.375C973.678 139.375 996.254 158.046 996.254 187.339C996.254 216.954 973.678 235.947 945 235.947C916.322 235.947 893.746 216.954 893.746 187.339C893.746 158.046 916.322 139.375 945 139.375Z" fill="#28D4AB"/>
<path d="M326.434 103.003V136.142H466.046V314L506.548 258.695V103.003H326.434Z" fill="#28D4AB"/>
<path d="M304.6 377V319.4H340.6V325.04H310.48V344.96H335.8V350.6H310.48V371.36H340.6V377H304.6ZM370.883 378.2C366.83 378.2 363.176 377.493 359.923 376.08C356.67 374.667 353.896 372.653 351.603 370.04C349.336 367.427 347.603 364.28 346.403 360.6C345.203 356.893 344.603 352.76 344.603 348.2C344.603 342.173 345.643 336.92 347.723 332.44C349.83 327.933 352.843 324.44 356.763 321.96C360.683 319.48 365.39 318.24 370.883 318.24C377.016 318.24 382.003 319.68 385.843 322.56C389.71 325.413 392.403 329.253 393.923 334.08L388.003 335.52C386.75 332 384.683 329.187 381.803 327.08C378.95 324.973 375.39 323.92 371.123 323.92C366.616 323.893 362.87 324.907 359.883 326.96C356.896 328.987 354.643 331.84 353.123 335.52C351.63 339.173 350.87 343.4 350.843 348.2C350.816 353 351.55 357.227 353.043 360.88C354.563 364.507 356.83 367.36 359.843 369.44C362.856 371.493 366.616 372.533 371.123 372.56C375.256 372.56 378.67 371.76 381.363 370.16C384.056 368.56 386.096 366.267 387.483 363.28C388.896 360.293 389.696 356.76 389.883 352.68H376.603V347.64H396.043C396.123 348.253 396.163 348.907 396.163 349.6C396.19 350.267 396.203 350.747 396.203 351.04C396.203 356.24 395.27 360.893 393.403 365C391.536 369.08 388.723 372.307 384.963 374.68C381.23 377.027 376.536 378.2 370.883 378.2ZM405.009 377V319.4H410.889V371.36H438.249V377H405.009ZM445.869 325.6V319H451.749V325.6H445.869ZM445.869 377V333.8H451.749V377H445.869ZM494.941 377V354.96C494.941 352.56 494.714 350.36 494.261 348.36C493.807 346.333 493.074 344.573 492.061 343.08C491.074 341.56 489.781 340.387 488.181 339.56C486.607 338.733 484.687 338.32 482.421 338.32C480.341 338.32 478.501 338.68 476.901 339.4C475.327 340.12 473.994 341.16 472.901 342.52C471.834 343.853 471.021 345.48 470.461 347.4C469.901 349.32 469.621 351.507 469.621 353.96L465.461 353.04C465.461 348.613 466.234 344.893 467.781 341.88C469.327 338.867 471.461 336.587 474.181 335.04C476.901 333.493 480.021 332.72 483.541 332.72C486.127 332.72 488.381 333.12 490.301 333.92C492.247 334.72 493.887 335.8 495.221 337.16C496.581 338.52 497.674 340.08 498.501 341.84C499.327 343.573 499.927 345.427 500.301 347.4C500.674 349.347 500.861 351.293 500.861 353.24V377H494.941ZM463.701 377V333.8H469.021V344.44H469.621V377H463.701ZM529.286 378.2C525.073 378.2 521.42 377.267 518.326 375.4C515.26 373.533 512.873 370.907 511.166 367.52C509.46 364.133 508.606 360.16 508.606 355.6C508.606 350.88 509.446 346.8 511.126 343.36C512.806 339.92 515.166 337.267 518.206 335.4C521.273 333.533 524.886 332.6 529.046 332.6C533.313 332.6 536.953 333.587 539.966 335.56C542.98 337.507 545.26 340.307 546.806 343.96C548.353 347.613 549.06 351.973 548.926 357.04H542.926V354.96C542.82 349.36 541.606 345.133 539.286 342.28C536.993 339.427 533.633 338 529.206 338C524.566 338 521.006 339.507 518.526 342.52C516.073 345.533 514.846 349.827 514.846 355.4C514.846 360.84 516.073 365.067 518.526 368.08C521.006 371.067 524.513 372.56 529.046 372.56C532.14 372.56 534.833 371.853 537.126 370.44C539.446 369 541.273 366.933 542.606 364.24L548.086 366.36C546.38 370.12 543.86 373.04 540.526 375.12C537.22 377.173 533.473 378.2 529.286 378.2ZM512.766 357.04V352.12H545.766V357.04H512.766Z" fill="#494949"/>
</svg>
