<svg width="500" height="500" viewBox="0 0 500 500" fill="none" xmlns="http://www.w3.org/2000/svg">
<rect width="500" height="500" rx="62" fill="#28D4AB"/>
<path fill-rule="evenodd" clip-rule="evenodd" d="M143 218C184.421 218 218 184.421 218 143C218 101.579 184.421 68 143 68C101.579 68 68 101.579 68 143C68 184.421 101.579 218 143 218ZM143 188C167.853 188 188 167.853 188 143C188 118.147 167.853 98 143 98C118.147 98 98 118.147 98 143C98 167.853 118.147 188 143 188Z" fill="white"/>
<path fill-rule="evenodd" clip-rule="evenodd" d="M363 442C404.421 442 438 408.421 438 367C438 325.579 404.421 292 363 292C321.579 292 288 325.579 288 367C288 408.421 321.579 442 363 442ZM363 412C387.853 412 408 391.853 408 367C408 342.147 387.853 322 363 322C338.147 322 318 342.147 318 367C318 391.853 338.147 412 363 412Z" fill="white"/>
<rect x="68" y="290" width="150" height="36.3636" rx="10" fill="white"/>
<rect x="68" y="347.576" width="150" height="36.3636" rx="10" fill="white"/>
<path d="M182 361L182 308L218 308L218 361L182 361Z" fill="white"/>
<rect x="68" y="421" width="55" height="36" transform="rotate(-90 68 421)" fill="white"/>
<rect x="68" y="405.152" width="150" height="36.3636" rx="10" fill="white"/>
<path d="M400 218C395.029 218 391 213.971 391 209V203L391 179L391 143L391 104.5L391 77C391 72.0294 395.029 68 400 68L418 68C422.971 68 427 72.0294 427 77L427 209C427 213.971 422.971 218 418 218L400 218Z" fill="white"/>
<path d="M288 80C288 73.3726 293.373 68 300 68L397 68C403.627 68 409 73.3726 409 80V92C409 98.6274 403.627 104 397 104L348.5 104H318.25H303.125H300C293.373 104 288 98.6274 288 92V80Z" fill="white"/>
</svg>
